<svg width="298" height="64" viewBox="0 0 298 64" fill="none" xmlns="http://www.w3.org/2000/svg">
<path d="M84.6592 1.8125H89.1454L97.2133 16.8958L105.281 1.8125H109.623V27.2543H105.281V9.44504L98.5881 21.9842H95.6938L89.0006 9.44504V27.2543H84.6592V1.8125ZM115.416 7.9912H119.396V21.6207L128.621 7.9912H132.42V27.2543H128.44V13.6247L119.215 27.2543H115.416V7.9912ZM137.499 7.9912H141.479V15.7328H150.523V7.9912H154.503V27.2543H150.523V19.1492H141.479V27.2543H137.499V7.9912ZM167.541 27.6541C166.311 27.6659 165.088 27.4692 163.923 27.0725C162.849 26.6682 161.874 26.0359 161.065 25.2189C160.23 24.3326 159.589 23.2802 159.184 22.1296C158.699 20.7408 158.466 19.2759 158.496 17.8045V17.0776C158.496 15.5283 158.736 14.1563 159.22 12.9705C159.699 11.7848 160.351 10.7898 161.174 9.99021C162.015 9.19061 162.982 8.59545 164.068 8.20928C165.176 7.80039 166.334 7.59142 167.541 7.59142C168.794 7.59142 169.902 7.75951 170.87 8.10025C171.787 8.40071 172.636 8.88266 173.366 9.51772C174.062 10.0992 174.619 10.7898 175.03 11.5894C175.437 12.389 175.718 13.2477 175.862 14.1699H171.81C171.594 13.3217 171.143 12.5527 170.508 11.9529C169.879 11.3713 168.889 11.0806 167.541 11.0806C166.863 11.0806 166.225 11.2032 165.624 11.444C165.017 11.6629 164.471 12.0242 164.032 12.498C163.537 13.0406 163.166 13.6858 162.946 14.388C162.662 15.2552 162.528 16.1648 162.548 17.0776V17.8045C162.548 18.9403 162.68 19.9261 162.946 20.7484C163.209 21.548 163.57 22.2023 164.032 22.7111C164.468 23.206 165.013 23.5918 165.624 23.8378C166.225 24.0559 166.863 24.1649 167.541 24.1649C169.784 24.1649 171.204 23.1336 171.81 21.0756H175.862C175.684 22.0476 175.341 22.9819 174.849 23.8378C174.393 24.6338 173.791 25.3365 173.076 25.9095C172.323 26.4827 171.479 26.925 170.58 27.2179C169.595 27.5152 168.57 27.6623 167.541 27.6541ZM187.969 27.6541C186.689 27.6541 185.486 27.4587 184.351 27.0725C183.239 26.6743 182.218 26.0564 181.348 25.2553C180.467 24.3774 179.777 23.3254 179.322 22.1659C178.788 20.7759 178.529 19.2942 178.562 17.8045V17.0776C178.562 15.4784 178.802 14.0836 179.286 12.8978C179.77 11.7121 180.421 10.7308 181.239 9.95387C182.085 9.15427 183.048 8.5591 184.134 8.17293C185.219 7.78676 186.377 7.59142 187.607 7.59142C190.524 7.59142 192.758 8.37739 194.3 9.95387C195.869 11.5304 196.652 13.7838 196.652 16.7141V18.7494H182.614C182.637 19.7444 182.795 20.5894 183.085 21.2936C183.397 21.9751 183.795 22.5294 184.278 22.9655C184.785 23.3744 185.35 23.6788 185.979 23.8742C186.63 24.0695 187.295 24.1649 187.969 24.1649C189.344 24.1649 190.343 23.9468 190.972 23.5107C191.597 23.1091 192.068 22.5071 192.31 21.8025H196.29C195.905 23.7151 194.951 25.1689 193.432 26.1639C191.935 27.1589 190.117 27.6541 187.969 27.6541ZM187.788 11.0806C187.128 11.0788 186.471 11.1643 185.834 11.335C185.241 11.5004 184.687 11.7848 184.206 12.1709C183.726 12.5629 183.343 13.0603 183.085 13.6247C182.774 14.2964 182.613 15.0284 182.614 15.7691H192.672C192.674 14.9968 192.527 14.2314 192.238 13.5157C192.028 12.953 191.679 12.4529 191.225 12.0619C190.772 11.6897 190.24 11.4284 189.669 11.2986C189.053 11.149 188.421 11.0757 187.788 11.0806ZM199.921 27.6541C199.704 27.6527 199.486 27.6406 199.27 27.6177C199.063 27.6192 198.856 27.5947 198.655 27.545V23.7651C198.835 23.7939 199.016 23.8061 199.198 23.8015C199.669 23.8132 200.13 23.6589 200.5 23.3653C200.862 23.0473 201.152 22.5157 201.369 21.7661C201.608 20.9938 201.789 19.9625 201.911 18.6768C202.029 17.391 202.092 15.7691 202.092 13.8065V7.9912H216.564V27.2543H212.584V11.4077H205.927V14.5334C205.927 17.123 205.791 19.2719 205.529 20.9665C205.285 22.6384 204.914 23.9696 204.408 24.9645C203.901 25.9595 203.272 26.6591 202.526 27.0725C201.717 27.4736 200.824 27.6731 199.921 27.6541ZM221.982 7.9912H225.961V14.7515H230.303C232.763 14.7515 234.586 15.283 235.766 16.3506C236.951 17.3956 237.539 18.9403 237.539 21.0029C237.539 22.9428 236.96 24.4693 235.802 25.5824C234.644 26.6955 232.813 27.2543 230.303 27.2543H221.982V7.9912ZM229.941 23.8378C231.271 23.8378 232.198 23.6106 232.727 23.1472C233.283 22.6611 233.559 21.9478 233.559 21.0029C233.559 20.0579 233.283 19.3537 232.727 18.8948C232.198 18.4087 231.271 18.1679 229.941 18.1679H225.961V23.8378H229.941ZM245.91 17.2229L239.361 7.9912H243.847L248.515 14.4607L253.109 7.9912H257.451L250.975 17.0776L257.813 27.2543H253.254L248.37 19.7671L243.413 27.2543H238.999L245.91 17.2229ZM268.666 27.6541C267.337 27.6541 266.098 27.4496 264.94 27.0362C263.832 26.6179 262.822 25.9745 261.973 25.1462C261.101 24.2828 260.422 23.2418 259.983 22.0932C259.477 20.7218 259.231 19.267 259.26 17.8045V17.0776C259.26 15.551 259.499 14.2063 259.983 13.0432C260.463 11.8575 261.128 10.8625 261.973 10.0629C262.814 9.24058 263.805 8.62271 264.94 8.20928C266.098 7.80039 267.337 7.59142 268.666 7.59142C269.991 7.59142 271.221 7.79585 272.357 8.20928C273.514 8.61816 274.514 9.24058 275.359 10.0629C276.201 10.8625 276.865 11.8575 277.349 13.0432C277.829 14.2063 278.073 15.551 278.073 17.0776V17.8045C278.073 19.4264 277.829 20.8575 277.349 22.0932C276.865 23.3062 276.201 24.3194 275.359 25.1462C274.5 25.979 273.477 26.6227 272.357 27.0362C271.221 27.4451 269.991 27.6541 268.666 27.6541ZM268.666 24.1649C269.363 24.1649 270.028 24.0423 270.656 23.8015C271.302 23.5624 271.884 23.1768 272.357 22.6748C272.863 22.1659 273.261 21.5117 273.551 20.7121C273.863 19.9125 274.021 18.9403 274.021 17.8045V17.0776C274.021 16.0326 273.863 15.1376 273.551 14.388C273.305 13.7186 272.919 13.1096 272.42 12.6019C271.921 12.0942 271.319 11.6994 270.656 11.444C269.36 10.9626 267.936 10.9626 266.64 11.444C266.007 11.6898 265.429 12.0605 264.94 12.5344C264.425 13.0675 264.019 13.6973 263.746 14.388C263.438 15.2501 263.291 16.1618 263.312 17.0776V17.8045C263.312 18.9403 263.457 19.9125 263.746 20.7121C264.058 21.5117 264.456 22.1659 264.94 22.6748C265.446 23.1836 266.012 23.5607 266.64 23.8015C267.291 24.0423 267.965 24.1649 268.666 24.1649ZM289.094 27.6541C286.489 27.6541 284.472 27.1225 283.052 26.0549C281.65 24.9645 280.89 23.4244 280.773 21.439H284.825C284.867 21.8404 284.991 22.2287 285.191 22.5791C285.39 22.9295 285.66 23.2344 285.983 23.4743C286.634 23.9332 287.647 24.1649 289.022 24.1649C290.659 24.1649 291.794 23.8969 292.423 23.3653C292.72 23.1258 292.96 22.8213 293.122 22.4749C293.285 22.1286 293.368 21.7494 293.363 21.3663C293.375 21.0347 293.306 20.7053 293.161 20.4072C293.015 20.1092 292.799 19.8518 292.531 19.6581C291.997 19.2219 291.057 19.0039 289.709 19.0039H286.561V15.8782H289.456C290.564 15.8782 291.373 15.651 291.88 15.1876C292.126 14.9704 292.321 14.7015 292.453 14.4001C292.584 14.0986 292.648 13.7719 292.64 13.443C292.637 13.1279 292.565 12.8173 292.427 12.5343C292.289 12.2512 292.09 12.0028 291.844 11.8075C291.31 11.3214 290.396 11.0806 289.094 11.0806C287.692 11.0806 286.715 11.3077 286.163 11.7711C285.621 12.2468 285.273 12.907 285.187 13.6247H281.135C281.163 12.7747 281.375 11.9411 281.756 11.1817C282.137 10.4222 282.678 9.75523 283.342 9.22696C284.716 8.1366 286.634 7.59142 289.094 7.59142C291.721 7.59142 293.639 8.11387 294.846 9.15426C296.077 10.1992 296.692 11.5531 296.692 13.2249C296.708 14.0871 296.468 14.9347 296.004 15.6601C295.57 16.3643 294.846 16.8958 293.833 17.2593C295.181 17.6 296.113 18.1679 296.619 18.9675C297.148 19.7671 297.415 20.6894 297.415 21.7298C297.435 22.5474 297.257 23.3577 296.898 24.0917C296.539 24.8257 296.009 25.4618 295.353 25.9458C294.572 26.53 293.688 26.9615 292.748 27.2179C291.555 27.5277 290.326 27.6744 289.094 27.6541ZM84.6592 38.1579H93.8849C97.2857 38.1579 99.7957 38.8984 101.41 40.375C103.025 41.8288 103.834 43.7914 103.834 46.2629C103.834 48.7344 103.025 50.7107 101.41 52.1872C99.7957 53.641 97.2857 54.3679 93.8849 54.3679H89.0006V63.5997H84.6592V38.1579ZM93.523 50.588C94.6582 50.588 95.6079 50.5017 96.3813 50.3336C97.1546 50.1383 97.7696 49.8747 98.2264 49.534C98.6713 49.1868 99.0098 48.7208 99.2032 48.1892C99.4068 47.568 99.5047 46.9168 99.4926 46.2629C99.4926 45.536 99.3977 44.9045 99.2032 44.373C99.0098 43.8414 98.6713 43.3753 98.2264 43.0282C97.6796 42.6246 97.0487 42.3512 96.3813 42.2286C95.4436 42.0169 94.4839 41.9193 93.523 41.9378H89.0006V50.588H93.523ZM115.787 63.9995C114.462 63.9995 113.218 63.795 112.06 63.3816C110.953 62.9622 109.943 62.3189 109.094 61.4916C108.223 60.6271 107.544 59.5864 107.104 58.4386C106.597 57.0672 106.352 55.6124 106.38 54.1499V53.423C106.38 51.8965 106.62 50.5517 107.104 49.3886C107.539 48.2741 108.206 47.266 109.061 46.4321C109.916 45.5983 110.938 44.9581 112.06 44.5547C113.218 44.1458 114.462 43.9368 115.787 43.9368C117.112 43.9368 118.342 44.1412 119.477 44.5547C120.606 44.9537 121.636 45.5919 122.497 46.426C123.358 47.26 124.031 48.2704 124.47 49.3886C124.954 50.5517 125.193 51.8965 125.193 53.423V54.1499C125.193 55.7718 124.954 57.2029 124.47 58.4386C123.986 59.6516 123.326 60.6648 122.48 61.4916C121.621 62.3244 120.598 62.968 119.477 63.3816C118.342 63.7905 117.112 63.9995 115.787 63.9995ZM115.787 60.5103C116.488 60.5103 117.148 60.3877 117.777 60.1469C118.422 59.9078 119.004 59.5222 119.477 59.0202C119.984 58.5113 120.382 57.8571 120.671 57.0575C120.983 56.2579 121.141 55.2857 121.141 54.1499V53.423C121.141 52.378 120.983 51.483 120.671 50.7334C120.425 50.0639 120.04 49.455 119.54 48.9473C119.041 48.4396 118.44 48.0448 117.777 47.7894C116.481 47.308 115.057 47.308 113.761 47.7894C113.127 48.0352 112.549 48.4059 112.06 48.8798C111.545 49.4129 111.139 50.0427 110.867 50.7334C110.558 51.5955 110.411 52.5072 110.432 53.423V54.1499C110.432 55.2857 110.577 56.2579 110.867 57.0575C111.179 57.8571 111.576 58.5113 112.06 59.0202C112.567 59.529 113.132 59.9061 113.761 60.1469C114.412 60.3877 115.086 60.5103 115.787 60.5103ZM137.119 63.9995C135.889 64.0112 134.666 63.8146 133.501 63.4179C132.427 63.0136 131.452 62.3813 130.643 61.5643C129.808 60.678 129.167 59.6256 128.761 58.475C128.279 57.0857 128.046 55.6211 128.074 54.1499V53.423C128.074 51.8737 128.314 50.5017 128.798 49.3159C129.236 48.1972 129.902 47.1824 130.751 46.3356C131.597 45.536 132.56 44.9408 133.646 44.5547C134.754 44.1458 135.911 43.9368 137.119 43.9368C138.372 43.9368 139.484 44.1049 140.447 44.4457C141.438 44.7864 142.27 45.2589 142.944 45.8631C143.645 46.4446 144.197 47.1352 144.608 47.9348C145.02 48.7344 145.295 49.5931 145.44 50.5153H141.388C141.176 49.6656 140.724 48.8957 140.086 48.2983C139.457 47.7167 138.471 47.426 137.119 47.426C136.445 47.426 135.803 47.5486 135.201 47.7894C134.595 48.0095 134.05 48.3707 133.61 48.8434C133.118 49.3884 132.747 50.0328 132.524 50.7334C132.24 51.6006 132.106 52.5102 132.126 53.423V54.1499C132.126 55.2857 132.257 56.2715 132.524 57.0938C132.791 57.8934 133.153 58.5477 133.61 59.0565C134.047 59.5504 134.591 59.936 135.201 60.1832C135.803 60.4013 136.445 60.5103 137.119 60.5103C139.362 60.5103 140.787 59.479 141.388 57.421H145.44C145.264 58.3936 144.921 59.3281 144.427 60.1832C143.972 60.9801 143.37 61.6831 142.654 62.2549C141.901 62.8281 141.057 63.2704 140.158 63.5633C139.172 63.8606 138.148 64.0077 137.119 63.9995ZM157.189 63.9995C155.959 64.0112 154.736 63.8146 153.571 63.4179C152.497 63.0136 151.522 62.3813 150.713 61.5643C149.878 60.678 149.237 59.6256 148.832 58.475C148.347 57.0862 148.114 55.6213 148.145 54.1499V53.423C148.145 51.8737 148.384 50.5017 148.868 49.3159C149.347 48.1302 149.999 47.1352 150.822 46.3356C151.663 45.536 152.631 44.9408 153.716 44.5547C154.824 44.1458 155.982 43.9368 157.189 43.9368C158.442 43.9368 159.55 44.1049 160.518 44.4457C161.436 44.7461 162.284 45.2281 163.014 45.8631C163.711 46.4446 164.267 47.1352 164.678 47.9348C165.085 48.7344 165.366 49.5931 165.51 50.5153H161.458C161.243 49.6671 160.791 48.8981 160.156 48.2983C159.527 47.7167 158.537 47.426 157.189 47.426C156.511 47.426 155.873 47.5486 155.272 47.7894C154.665 48.0083 154.119 48.3696 153.68 48.8434C153.185 49.386 152.814 50.0312 152.595 50.7334C152.311 51.6006 152.176 52.5102 152.197 53.423V54.1499C152.197 55.2857 152.328 56.2715 152.595 57.0938C152.857 57.8934 153.219 58.5477 153.68 59.0565C154.116 59.5514 154.661 59.9372 155.272 60.1832C155.873 60.4013 156.511 60.5103 157.189 60.5103C159.432 60.5103 160.852 59.479 161.458 57.421H165.51C165.332 58.393 164.99 59.3273 164.497 60.1832C164.041 60.9792 163.44 61.6819 162.725 62.2549C161.971 62.8281 161.127 63.2704 160.228 63.5633C159.243 63.8606 158.218 64.0077 157.189 63.9995ZM169.296 44.3366H173.275V57.9661L182.501 44.3366H186.3V63.5997H182.32V49.9701L173.095 63.5997H169.296V44.3366ZM191.379 44.3366H195.358V57.9661L204.584 44.3366H208.383V63.5997H204.403V49.9701L195.177 63.5997H191.379V44.3366Z" fill="#1D2939"/>
<path d="M26.2525 0.477702C31.7787 -0.499829 37.4649 0.0288814 42.7186 2.00876C51.4468 5.22533 58.5922 12.5126 61.5634 21.3627C63.0965 25.5878 63.5712 30.1492 63.1868 34.606C62.5221 43.0745 58.1987 51.1704 51.6006 56.486C45.1033 61.7747 36.7889 64.2699 28.4685 63.4279C20.5748 62.6028 13.2737 58.8414 8.00017 52.8832C4.97379 49.4748 2.725 45.4434 1.41104 41.071C0.398024 38.0907 0.131149 34.9286 0 31.8029C0.126627 28.6045 0.420532 25.3698 1.47425 22.3258C2.7641 18.1596 4.897 14.3061 7.73905 11.0069C10.5811 7.70775 14.0711 5.0341 17.9901 3.15364C20.6056 1.8766 23.387 0.97578 26.2525 0.477702ZM30.377 11.5222C29.4499 13.3667 28.0434 14.9523 27.4057 16.9422C26.7861 18.7958 27.157 21.1128 28.7896 22.3349C29.8297 23.0664 30.9016 23.7842 31.702 24.7882C32.7784 23.13 35.0441 22.6757 35.8355 20.7902C36.7174 18.7685 35.9937 16.4924 34.8903 14.716C33.6376 12.7352 32.3441 10.7362 31.7065 8.45552C31.2949 9.48682 30.9242 10.5454 30.377 11.5222ZM35.5098 24.5611C33.5154 25.6969 32.2944 27.9866 32.2763 30.2673C32.2673 32.0482 32.2899 33.8292 32.2582 35.6101C32.9954 33.8655 34.5918 32.766 36.1565 31.8392C37.1831 31.2577 38.1465 30.5808 39.1685 29.9947C40.8825 29.0088 42.1216 27.1689 42.2211 25.1699C42.3341 23.1663 42.2346 21.1537 42.2753 19.1456C40.8508 21.8125 37.9474 23.0391 35.5098 24.5656V24.5611ZM21.1151 19.35C21.0789 21.2945 21.0427 23.239 21.1241 25.1835C21.2371 27.4006 22.7522 29.3269 24.6833 30.3037C26.949 31.8211 29.7393 32.9024 31.0734 35.4511C31.087 33.7247 31.0824 31.9937 31.0734 30.2628C31.0546 28.4995 30.3616 26.811 29.1378 25.5469C28.1654 24.6065 26.9219 24.025 25.7777 23.3299C23.9778 22.3304 22.2683 21.081 21.1151 19.3455V19.35ZM21.1151 29.2724C21.0518 30.8806 21.1015 32.4889 21.0789 34.0972C21.0654 35.5056 21.3412 36.9685 22.2095 38.1088C23.3537 39.758 25.3029 40.4713 26.8902 41.5798C28.5499 42.5157 30.1916 43.6379 31.0779 45.3961C31.0779 43.6651 31.0824 41.9342 31.0734 40.2078C31.0599 38.57 30.4704 36.9897 29.4091 35.7464C28.0207 34.2244 26.0129 33.5566 24.3712 32.3708C23.0905 31.5671 21.9833 30.5135 21.1151 29.2724ZM35.4736 34.4652C34.4984 35.0693 33.6925 35.9132 33.1323 36.9172C32.572 37.9213 32.2758 39.0522 32.2718 40.2032C32.2672 41.9705 32.3035 43.7333 32.2493 45.5006C32.9276 44.1194 34.0853 43.0654 35.3832 42.2795C36.6359 41.4889 37.8886 40.6893 39.164 39.9397C40.9458 38.8902 42.212 36.9503 42.2618 34.8514C42.2889 32.9205 42.2527 30.9897 42.2799 29.0543C40.8237 31.7075 37.9338 32.9569 35.4736 34.4652ZM21.1105 39.2582C21.0608 40.9347 21.0924 42.6111 21.0834 44.2785C21.0834 45.6142 21.3774 46.9953 22.1915 48.0765C23.1321 49.4622 24.6832 50.1891 26.058 51.0614C27.9077 52.2018 29.9835 53.2649 31.0192 55.2957C31.1413 53.6601 31.0508 52.0246 31.0779 50.389C31.1042 49.198 30.8179 48.021 30.2479 46.9763C29.678 45.9316 28.8443 45.056 27.8308 44.4375C25.3977 43.0064 22.7069 41.7116 21.1105 39.2582ZM36.6495 43.7787C35.3109 44.4784 33.9858 45.3688 33.2396 46.7318C32.5341 47.913 32.2085 49.2896 32.2673 50.6616C32.3035 52.2199 32.2266 53.7828 32.3035 55.3411C32.8552 54.4506 33.4839 53.5783 34.3522 52.9695C36.0526 51.752 37.9112 50.7706 39.6478 49.6076C40.4291 49.0668 41.073 48.3493 41.5278 47.5129C41.9826 46.6765 42.2356 45.7444 42.2663 44.7918C42.2844 42.8746 42.2573 40.9665 42.2799 39.0538C41.0679 41.289 38.766 42.5521 36.6495 43.7787Z" fill="#D3A52B"/>
<path d="M30.3757 11.5227C30.9229 10.5459 31.2936 9.48735 31.7052 8.45605C32.3428 10.7367 33.6363 12.7357 34.889 14.7166C35.9925 16.4884 36.7162 18.7691 35.8343 20.7908C35.0428 22.6762 32.7771 23.1305 31.7008 24.7888C30.9003 23.7847 29.8284 23.0669 28.7882 22.3355C27.1556 21.1133 26.7848 18.7963 27.4044 16.9382C28.042 14.9528 29.4486 13.3672 30.3757 11.5227ZM21.1137 19.3506C22.2669 21.0815 23.9764 22.3309 25.7764 23.3304C26.9205 24.0255 28.1641 24.607 29.1365 25.5475C30.3485 26.7969 31.0676 28.5232 31.0721 30.2633C31.0811 31.9897 31.0857 33.7252 31.0721 35.4516C29.738 32.9029 26.9477 31.8216 24.6819 30.3042C22.7508 29.3274 21.2357 27.4011 21.1227 25.184C21.0631 23.24 21.0602 21.2947 21.1137 19.3506ZM21.1137 29.2729C21.9956 30.4995 23.0764 31.5808 24.3699 32.3713C26.0115 33.5525 28.0194 34.2249 29.4078 35.7469C30.4525 36.9826 31.0766 38.5818 31.0721 40.2083C31.0811 41.9347 31.0767 43.6611 31.0767 45.3921C30.1903 43.6384 28.5486 42.5162 26.8889 41.5849C25.3015 40.4718 23.3523 39.7585 22.2081 38.1093C21.3398 36.9736 21.064 35.5016 21.0775 34.0977C21.1001 32.4894 21.0504 30.8812 21.1137 29.2729ZM21.1091 39.2588C22.7056 41.7121 25.3964 43.0069 27.8295 44.438C29.8826 45.6465 31.1354 48.0135 31.0767 50.3895C31.0495 52.0251 31.14 53.6606 31.0179 55.2962C29.9822 53.2654 27.9063 52.2068 26.0567 51.0619C24.6818 50.1897 23.1307 49.4627 22.1901 48.0771C21.376 46.9958 21.0819 45.6147 21.0819 44.2835C21.091 42.6116 21.0594 40.9352 21.1091 39.2633V39.2588Z" fill="#FED700"/>
<path d="M35.5094 24.5637C37.9469 23.0372 40.8503 21.8151 42.2749 19.1437C42.2342 21.1518 42.3337 23.1644 42.2206 25.1679C42.1211 27.1669 40.882 29.0115 39.1681 29.9928C38.146 30.5788 37.1827 31.2558 36.1561 31.8373C34.5914 32.7641 32.995 33.8636 32.2578 35.6081C32.2895 33.8272 32.2668 32.0417 32.2759 30.2654C32.294 27.9847 33.515 25.6949 35.5094 24.5637Z" fill="white"/>
<path d="M35.4734 34.4637C37.9335 32.9554 40.8233 31.706 42.2795 29.0482C42.2524 30.9836 42.2886 32.919 42.2615 34.8544C42.2117 36.9442 40.9455 38.8887 39.1637 39.9382C37.8884 40.6878 36.6357 41.4829 35.383 42.2779C34.0851 43.0639 32.9274 44.1179 32.249 45.5036C32.3033 43.7317 32.267 41.969 32.2715 40.2017C32.2715 37.9074 33.5016 35.6449 35.4734 34.4637Z" fill="#324BA0"/>
<path d="M36.648 43.7807C38.7644 42.554 41.0663 41.291 42.2783 39.0558C42.2557 40.9639 42.2829 42.8766 42.2648 44.7893C42.2341 45.7419 41.9811 46.6739 41.5263 47.5103C41.0715 48.3468 40.4275 49.0643 39.6463 49.605C37.9097 50.7726 36.051 51.754 34.3506 52.967C33.4823 53.5803 32.8537 54.4526 32.302 55.3431C32.2251 53.7848 32.302 52.2219 32.2658 50.6636C32.2003 49.2849 32.5384 47.9171 33.2381 46.7292C33.9843 45.3753 35.3093 44.4803 36.648 43.7807Z" fill="#D12026"/>
</svg>
