<svg width="512" height="512" viewBox="0 0 512 512" fill="none" xmlns="http://www.w3.org/2000/svg">
<path d="M438.601 375.467C442.182 382.653 443.972 389.839 443.972 398.821C442.182 425.768 411.748 443.733 377.734 440.14C343.72 436.547 316.867 413.193 320.448 386.246C320.448 379.06 324.028 371.874 329.399 364.688C322.238 326.961 316.867 289.235 313.287 249.712C304.336 256.898 291.804 264.084 279.273 265.881C238.098 274.863 195.133 240.73 195.133 240.73C195.133 240.73 220.196 194.021 263.161 185.039C266.741 185.039 272.112 183.242 275.692 183.242C248.839 159.888 239.888 127.551 254.21 98.807L264.951 75.4526C264.951 73.6561 270.322 73.6561 268.531 75.4526C268.531 77.2491 268.531 79.0456 268.531 79.0456C268.531 107.789 286.434 134.737 315.077 154.498C365.203 98.807 456.503 113.179 494.098 165.277L495.888 167.074C460.084 68.2667 365.203 0 254.21 0C204.084 0 157.538 14.3719 118.154 39.5228L159.329 206.596H146.797L105.622 46.7088C100.252 50.3018 96.6713 53.8947 91.3007 57.4877C85.9301 62.8772 78.7692 68.2667 73.3986 75.4526L94.8811 143.719L80.5594 140.126L60.8671 88.0281C57.2867 91.6211 53.7063 97.0105 51.9161 100.604C44.7552 109.586 39.3846 118.568 34.014 127.551C32.2238 131.144 30.4336 134.737 28.6434 138.33L37.5944 158.091L28.6434 170.667L19.6923 154.498C16.1119 165.277 12.5315 176.056 8.95105 186.835C7.16084 192.225 7.16084 195.818 5.37063 201.207L34.014 253.305L26.8531 260.491L1.79021 220.968C-1.73395e-06 231.747 0 242.526 0 255.102C0 373.67 78.7692 474.274 187.972 503.018C189.762 503.018 191.552 504.814 193.343 504.814C180.811 472.477 164.699 429.361 162.909 420.379C162.909 416.786 164.699 413.193 170.07 409.6C175.441 407.803 180.811 409.6 180.811 411.396C186.182 420.379 213.035 479.663 227.357 510.204C229.147 510.204 229.147 510.204 230.937 510.204C239.888 510.204 248.839 512 256 512C390.266 512 501.259 407.804 512 276.66C499.469 273.067 490.517 267.677 481.566 262.288C470.825 301.811 458.294 341.333 438.601 375.467ZM130.685 267.677C139.636 249.712 155.748 238.933 175.441 229.951C184.392 249.712 187.972 269.474 182.601 289.235C177.231 307.2 153.958 321.572 141.427 316.182C128.895 310.793 121.734 283.846 130.685 267.677ZM68.028 168.87C87.7203 176.056 102.042 186.835 114.573 203.004C125.315 219.172 125.315 240.73 110.993 256.898C107.413 258.695 102.042 260.491 96.6713 260.491C76.979 258.695 62.6573 246.119 57.2867 226.358C55.4965 210.189 57.2867 186.835 68.028 168.87ZM34.014 291.032C53.7063 282.049 73.3986 278.456 91.3007 283.846C109.203 289.235 123.524 312.589 118.154 325.165C112.783 337.74 85.9301 343.13 71.6084 335.944C51.9161 326.961 41.1748 310.793 34.014 291.032ZM150.378 398.821C146.797 407.804 123.524 416.786 110.993 411.396C87.7203 404.211 76.979 386.246 66.2378 362.891C89.5105 352.112 109.203 348.519 130.685 359.298C143.217 368.281 153.958 389.839 150.378 398.821ZM214.825 359.298C211.245 375.467 200.504 386.246 182.601 388.042C177.231 388.042 170.07 386.246 166.489 382.653C153.958 370.077 152.168 352.112 164.699 337.74C175.441 325.165 189.762 314.386 204.084 300.014C214.825 323.368 218.406 341.333 214.825 359.298Z" fill="#29A13E"/>
</svg>
