<svg xmlns="http://www.w3.org/2000/svg" fill="none" viewBox="0 0 44 44">
  <path fill="#fff" d="M17.417 18.333a.917.917 0 1 0 0-1.833.917.917 0 0 0 0 1.833Zm9.165 9.167a.917.917 0 1 0 0-1.833.917.917 0 0 0 0 1.833Z"/>
  <path stroke="currentColor" stroke-linecap="round" stroke-linejoin="round" stroke-width="2" d="m16.5 27.5 11-11m-10.083 1.833a.917.917 0 1 0 0-1.833.917.917 0 0 0 0 1.833Zm9.165 9.167a.917.917 0 1 0 0-1.833.917.917 0 0 0 0 1.833ZM5.5 22a16.5 16.5 0 1 0 33 0 16.5 16.5 0 0 0-33 0Z"/>
</svg>
