<svg xmlns="http://www.w3.org/2000/svg" fill="none" viewBox="0 0 44 44">
  <path stroke="currentColor" stroke-linecap="round" stroke-linejoin="round" stroke-width="2" d="M22.919 38.372c-1.588.458-3.51-.305-3.99-2.286a3.16 3.16 0 0 0-4.717-1.955c-2.829 1.724-6.068-1.514-4.345-4.345a3.161 3.161 0 0 0-1.953-4.715c-3.219-.781-3.219-5.36 0-6.142a3.16 3.16 0 0 0 1.955-4.717c-1.723-2.829 1.514-6.068 4.345-4.345a3.158 3.158 0 0 0 4.715-1.953c.781-3.219 5.36-3.219 6.142 0a3.16 3.16 0 0 0 4.717 1.955c2.829-1.723 6.068 1.514 4.345 4.345a3.161 3.161 0 0 0 1.953 4.715c1.968.477 2.731 2.376 2.295 3.957m-3.548 17.447v-11m0 0 5.5 5.5m-5.5-5.5-5.5 5.5M16.5 22a5.5 5.5 0 1 0 11 0 5.5 5.5 0 0 0-11 0Z"/>
</svg>
