<svg xmlns="http://www.w3.org/2000/svg" fill="none" viewBox="0 0 32 32">
  <path stroke="currentColor" stroke-linecap="round" stroke-linejoin="round" stroke-width="2" d="M16.668 27.907c-1.155.333-2.552-.222-2.901-1.663a2.3 2.3 0 0 0-3.431-1.421c-2.057 1.253-4.413-1.102-3.16-3.16a2.299 2.299 0 0 0-1.42-3.43c-2.341-.568-2.341-3.898 0-4.466a2.3 2.3 0 0 0 1.421-3.431c-1.253-2.057 1.102-4.413 3.16-3.16a2.297 2.297 0 0 0 3.43-1.42c.568-2.341 3.898-2.341 4.466 0a2.3 2.3 0 0 0 3.431 1.421c2.057-1.253 4.413 1.102 3.16 3.16a2.3 2.3 0 0 0 1.42 3.43c1.432.346 1.987 1.728 1.67 2.877m-2.58 12.69v-8m0 0 4 4m-4-4-4 4M12 16a4 4 0 1 0 8 0 4 4 0 0 0-8 0Z"/>
</svg>
